# xmcd
#
# Track frame offsets:
#	150
#	9629
#	19682
#	29455
#	39913
#	51825
#	60927
#	72441
#	83924
#	94061
#	102599
#	112859
#
# Disc length: 1647 seconds
#
# Revision: 1
# Processed by: cddbd v1.5.2PL0 Copyright (c) Steve Scherf et al.
# Submitted via: audiograbber 1.83.01
#
DISCID=90066d0c
DTITLE=Porter Wagoner - The Thin Man From West Plains
DYEAR=1965
DGENRE=Country
TTITLE0=Another Day, Another Dollar
TTITLE1=Lovin' Lies
TTITLE2=I'm Gonna Feed You Now
TTITLE3=My Friends Are Gonna Be Strangers
TTITLE4=Tomorrow We'll Retire
TTITLE5=Sorrow On The Rocks
TTITLE6=My Baby Turns The Lights On Uptown
TTITLE7=The Bride's Bouquet
TTITLE8=Dim Lights, Thick Smoke And Loud Music
TTITLE9=I Couldn't Care Less
TTITLE10=Memories From The Past
TTITLE11=I'll Go Down Swinging
EXTD=
EXTT0=
EXTT1=
EXTT2=
EXTT3=
EXTT4=
EXTT5=
EXTT6=
EXTT7=
EXTT8=
EXTT9=
EXTT10=
EXTT11=
PLAYORDER=
